<?xml version="1.0" standalone="no"?>
<!DOCTYPE svg PUBLIC "-//W3C//DTD SVG 20010904//EN"
 "http://www.w3.org/TR/2001/REC-SVG-20010904/DTD/svg10.dtd">
<svg version="1.0" xmlns="http://www.w3.org/2000/svg"
 width="500.000000pt" height="500.000000pt" viewBox="0 0 500.000000 500.000000"
 preserveAspectRatio="xMidYMid meet">

<g transform="translate(0.000000,500.000000) scale(0.100000,-0.100000)"
fill="#000000" stroke="none">
<path d="M1731 3941 c-36 -36 -42 -88 -48 -411 -5 -287 15 -869 32 -947 3 -13
19 -30 36 -39 28 -14 32 -14 48 0 10 9 28 16 40 16 37 0 90 30 118 67 74 96
93 264 74 653 -15 312 -30 396 -105 565 -31 69 -48 85 -92 85 -17 0 -37 7 -44
15 -17 20 -36 19 -59 -4z"/>
<path d="M3190 3945 c-7 -8 -27 -15 -45 -15 -42 0 -58 -19 -101 -121 -72 -171
-94 -342 -94 -749 0 -243 10 -306 63 -410 24 -48 83 -90 125 -90 12 0 33 -7
47 -16 25 -16 49 -10 74 20 18 22 43 532 42 871 -1 334 -10 455 -38 493 -24
32 -55 39 -73 17z"/>
<path d="M1674 3889 c-4 -7 -10 -26 -13 -43 -5 -24 -13 -32 -36 -36 -27 -5
-30 -10 -36 -55 -4 -28 -9 -92 -12 -143 -6 -91 -5 -93 18 -102 57 -22 59 -115
6 -220 l-34 -65 7 -210 c3 -115 9 -238 12 -272 7 -60 7 -62 38 -65 28 -3 33
-8 45 -50 19 -64 35 -61 27 5 -31 256 -45 968 -22 1157 13 109 13 120 0 99z"/>
<path d="M3307 3818 c20 -177 1 -1139 -23 -1220 -3 -10 -1 -18 5 -18 6 0 13
12 17 28 10 44 33 72 58 72 33 0 35 16 43 305 l6 250 -32 56 c-54 96 -52 192
6 218 l25 11 -7 138 c-5 83 -12 140 -19 144 -6 4 -21 8 -33 8 -17 0 -25 9 -33
40 -17 61 -22 48 -13 -32z"/>
<path d="M1515 3781 c-41 -25 -60 -49 -74 -92 -12 -37 -30 -299 -21 -299 3 0
23 23 43 50 21 28 48 56 61 61 22 10 24 18 30 132 4 67 10 132 13 145 7 28
-11 29 -52 3z"/>
<path d="M3426 3663 l7 -138 52 -50 c28 -27 59 -61 68 -75 15 -24 16 -19 11
85 -7 142 -20 214 -42 245 -20 26 -78 70 -94 70 -5 0 -6 -57 -2 -137z"/>
<path d="M1543 3490 c-30 -12 -98 -101 -138 -180 -92 -183 -221 -528 -231
-618 -6 -47 -13 -64 -45 -99 -35 -38 -39 -48 -39 -94 0 -28 7 -66 16 -85 l16
-34 -43 -56 c-24 -30 -49 -63 -56 -72 -10 -14 -4 -40 29 -139 40 -120 41 -122
97 -166 l57 -44 24 -104 c28 -122 30 -127 86 -200 29 -38 52 -58 72 -62 18 -4
43 -25 72 -61 25 -31 47 -56 50 -56 3 0 32 32 64 71 l58 70 -68 73 c-108 114
-141 159 -191 252 -43 81 -45 89 -34 118 18 44 61 207 61 231 0 11 -9 31 -20
45 -25 32 -25 57 -1 65 10 3 30 23 45 43 32 47 35 115 7 170 -34 69 -34 85 3
121 l34 33 -19 57 c-31 91 -27 85 -44 71 -29 -24 -27 -2 11 102 36 100 78 192
163 351 45 86 53 145 25 185 -16 24 -27 26 -61 12z m-233 -895 c41 -21 66 -91
50 -139 -32 -98 -168 -119 -220 -34 -35 57 -20 136 32 172 28 20 100 21 138 1z"/>
<path d="M1198 2575 c-35 -19 -48 -44 -48 -90 0 -82 100 -116 161 -56 38 38
39 80 2 121 -34 36 -78 46 -115 25z"/>
<path d="M3384 3486 c-15 -11 -19 -26 -18 -68 0 -46 10 -71 72 -189 40 -75 92
-189 117 -255 46 -122 55 -158 33 -136 -21 21 -26 14 -50 -59 l-23 -71 33 -27
c17 -15 32 -33 32 -40 0 -6 -11 -38 -25 -71 -42 -99 -30 -159 42 -219 34 -28
36 -32 21 -48 -37 -43 -38 -56 -13 -167 13 -58 31 -116 39 -128 14 -20 12 -28
-31 -112 -47 -89 -125 -196 -215 -290 l-48 -50 29 -31 c15 -16 40 -47 56 -67
15 -21 31 -38 35 -38 4 0 27 25 51 55 30 37 55 58 79 65 48 14 117 116 137
203 34 152 40 163 100 209 56 43 56 44 96 165 l39 122 -38 48 c-22 26 -47 57
-56 67 -22 24 -22 23 2 71 11 22 20 50 20 62 0 36 -26 90 -56 118 -22 21 -29
38 -35 90 -12 97 -174 514 -258 665 -30 54 -112 140 -132 140 -8 0 -24 -6 -35
-14z m435 -902 c102 -85 15 -247 -115 -212 -60 15 -99 90 -82 155 21 79 132
112 197 57z"/>
<path d="M3698 2575 c-35 -19 -48 -44 -48 -90 0 -78 95 -115 157 -61 79 69
-17 202 -109 151z"/>
<path d="M1526 3154 c-39 -80 -96 -228 -96 -248 0 -12 14 -59 30 -106 17 -47
30 -86 30 -88 0 -6 66 -42 78 -42 9 0 11 10 6 34 -3 19 -11 137 -17 262 l-12
227 -19 -39z"/>
<path d="M3426 2983 c-4 -115 -11 -228 -16 -253 -4 -25 -5 -49 0 -53 4 -5 24
-1 43 8 33 15 39 25 71 121 l34 104 -34 87 c-39 99 -82 193 -87 193 -2 0 -7
-93 -11 -207z"/>
<path d="M1601 1473 c-28 -32 -51 -66 -51 -76 0 -24 170 -194 245 -244 134
-90 286 -153 458 -190 115 -25 419 -25 533 -1 165 36 309 98 431 185 67 47
169 148 208 205 l23 34 -31 40 c-18 22 -45 55 -60 73 l-28 33 -49 -41 c-117
-99 -262 -169 -450 -218 -132 -35 -417 -44 -571 -19 -194 32 -393 113 -518
209 -29 23 -61 48 -71 55 -16 11 -24 6 -69 -45z"/>
</g>
</svg>
